<?xml version="1.0" encoding="utf-8" ?><svg xmlns="http://www.w3.org/2000/svg" xmlns:xlink="http://www.w3.org/1999/xlink" width="1024" height="1024" viewBox="0 0 1024 1024"><path fill="#FEFEFE" d="M168.952 0L856.397 0C858.522 1.25169 876.175 3.29168 880.045 4.08216C906.238 9.40882 930.919 20.4946 952.3 36.5366C954.19 37.9477 962.031 44.1148 963.183 45.5515C991.887 71.7234 1010.18 101.639 1019.04 139.68C1020.41 145.711 1021.51 151.799 1022.35 157.926C1022.82 161.302 1023.22 166.209 1024 169.26L1024 220.83L1024 744.828L1024 847.305L1024 1024L848.331 1024L175.122 1024L0 1024L0 849.817L0 733.211L0 226.815L0 170.235C1.01461 167.061 1.53364 160.502 2.00292 156.865C2.73438 150.832 3.78884 144.842 5.16174 138.922C14.1298 100.769 32.4243 71.8343 60.7991 45.3886C83.4739 24.1061 117.778 8.61396 148.256 3.26595C152.269 2.56175 166.837 1.36346 168.952 0Z"/><defs><linearGradient id="gradient_0" gradientUnits="userSpaceOnUse" x1="510.49854" y1="424.23755" x2="512.55353" y2="47.407951"><stop offset="0" stop-color="#B0AFAE"/><stop offset="1" stop-color="#E3E3E2"/></linearGradient></defs><path fill="url(#gradient_0)" d="M168.952 0L856.397 0C858.522 1.25169 876.175 3.29168 880.045 4.08216C906.238 9.40882 930.919 20.4946 952.3 36.5366C954.19 37.9477 962.031 44.1148 963.183 45.5515C991.887 71.7234 1010.18 101.639 1019.04 139.68C1020.41 145.711 1021.51 151.799 1022.35 157.926C1022.82 161.302 1023.22 166.209 1024 169.26L1024 220.83C1023.35 221.278 1023.28 221.429 1022.74 222.017C1022.72 223.324 1022.76 223.39 1022.4 224.632L1021.85 224.889L1021.62 223.344C1004.54 219.504 993.813 222.462 976.801 222.65C964.096 222.791 949.387 220.189 936.7 220.007C920.836 219.779 904.289 221.699 888.298 221.413C882.8 221.315 875.453 218.697 869.035 218.05C864.364 217.579 855.589 217.76 851.237 216.707C841.965 214.465 831.707 212.42 821.987 213.414C819.928 213.625 821.58 216.084 820.58 217.698C820.804 215.748 820.623 214.44 820.472 212.471C821.152 192.453 834.962 181.087 849.494 169.932C863.535 159.883 857.911 135.71 839.769 136.901C813.795 138.605 792.817 165.714 785.915 188.476C774.631 225.688 785.986 261.282 797.317 296.437C809.316 333.665 808.273 381.722 780.098 411.318C758.767 433.69 742.063 427.669 716.496 418.901C707.833 415.933 699.133 413.076 690.397 410.332C672.781 405.033 654.822 400.949 636.647 398.108C595.72 391.569 545.231 386.92 504.209 389.854C491.16 390.801 478.134 392.043 465.142 393.58C455.406 394.805 445.055 396.506 435.261 396.926C425.234 397.355 414.186 388.944 405.547 384.606C398.888 381.263 392.224 377.813 385.718 374.215C383.968 373.248 381.559 370.448 380.27 368.797C374.569 360.497 371.231 348.624 367.795 339.199C363.938 328.62 360.549 318.013 356.299 307.618C351.382 295.59 345.188 283.534 337.362 273.147C334.047 268.747 327.625 263.334 324.984 258.829C321.388 252.58 318.546 246.426 315.252 239.936C308.784 227.191 300.556 214.955 291.166 204.169C289.942 202.762 286.675 200.89 284.719 201.4C279.102 202.867 276.659 210.211 274.606 214.991C271.695 222.396 269.49 230.561 266.739 238.102C265.228 242.243 264.006 244.868 261.664 248.661C252.904 242.19 221.059 207.718 213.305 207.726C212.521 208.827 212.664 209.993 212.604 211.396L211.676 210.301L210.677 210.393C206.617 210.75 204.048 210.419 199.753 211.303C194.07 212.474 188.322 213.447 182.655 214.773C177.804 215.909 172.215 214.845 167.246 215.301C163.627 215.636 160.065 216.402 156.421 216.472C131.223 210.931 106.046 214.627 80.4991 213.674C76.507 213.525 72.3661 212.834 68.3602 212.658C53.5901 213.567 38.9504 214.069 24.1968 215.502C18.874 216.019 5.98095 215.278 1.8429 216.741C1.13424 220.08 1.91493 226.556 1.14089 228.378C0.0926106 227.551 0.5174 228.029 0 226.815L0 170.235C1.01461 167.061 1.53364 160.502 2.00292 156.865C2.73438 150.832 3.78884 144.842 5.16174 138.922C14.1298 100.769 32.4243 71.8343 60.7991 45.3886C83.4739 24.1061 117.778 8.61396 148.256 3.26595C152.269 2.56175 166.837 1.36346 168.952 0Z"/><path fill="#E4E4E4" d="M168.952 0L856.397 0C858.522 1.25169 876.175 3.29168 880.045 4.08216C906.238 9.40882 930.919 20.4946 952.3 36.5366C954.19 37.9477 962.031 44.1148 963.183 45.5515C963.64 47.5138 965.602 48.4887 967.121 50.6134C963.943 54.7854 951.654 51.1289 947.448 51.8189C922.504 55.9115 896.872 55.5361 871.655 56.2828C869.329 56.3516 866.905 56.8194 864.559 57.0695C834.474 60.2758 803.942 58.1195 773.709 59.1017C767.777 58.6177 760.651 59.6724 754.863 58.8024C726.256 54.5027 698.378 61.3289 669.775 58.2404C663.416 57.7187 655.934 58.6482 649.719 57.5456C637.378 55.3564 623.815 58.5461 611.507 56.6741C607.032 55.9935 604.287 54.3073 598.933 54.1634C580.796 53.6759 562.988 54.5261 544.94 56.1213C539.586 56.5856 523.855 54.3705 520.05 55.6332L519.381 57.1527L518.767 57.3728L517.851 55.6555C514.012 55.3876 508.637 57.0339 504.769 58.0255C503.356 56.9702 503.365 56.1263 501.501 56.3027C492.027 57.1995 482.65 57.3938 473.136 57.2326C468.404 57.1399 463.684 56.7223 459.009 55.9828C455.396 55.3942 450.847 54.3964 447.268 54.2594C443.388 54.1109 437.525 55.1626 433.741 54.9271C412.349 53.5954 391.183 54.959 369.744 54.6316C358.495 54.4597 345.702 55.7583 334.503 55.7097C323.694 55.6627 311.57 54.1058 300.721 54.1231C291.679 54.1376 281.816 55.6396 272.687 55.3895C267.637 55.4633 261.315 53.4126 256.43 53.7029C244.372 54.4199 232.298 54.7476 220.238 55.454C217.829 55.5951 214.718 56.3919 212.662 56.3861C205.787 56.3668 198.917 56.0575 192.037 56.1609C178.227 55.7046 164.955 53.6219 151.156 52.4457C139.504 51.4526 121.85 54.7131 110.74 53.4829C103.929 52.7288 96.8983 51.8653 90.1882 51.1194C87.4228 50.8119 78.3824 45.7112 74.112 45.1634C68.5469 44.4495 64.6826 47.3815 60.7991 45.3886C83.4739 24.1061 117.778 8.61396 148.256 3.26595C152.269 2.56175 166.837 1.36346 168.952 0Z"/><defs><linearGradient id="gradient_1" gradientUnits="userSpaceOnUse" x1="181.87312" y1="807.3269" x2="169.37244" y2="210.325"><stop offset="0" stop-color="#757474"/><stop offset="1" stop-color="#CECDCD"/></linearGradient></defs><path fill="url(#gradient_1)" d="M0 226.815C0.5174 228.029 0.0926106 227.551 1.14089 228.378C1.91493 226.556 1.13424 220.08 1.8429 216.741C5.98095 215.278 18.874 216.019 24.1968 215.502C38.9504 214.069 53.5901 213.567 68.3602 212.658C72.3661 212.834 76.507 213.525 80.4991 213.674C106.046 214.627 131.223 210.931 156.421 216.472C160.065 216.402 163.627 215.636 167.246 215.301C172.215 214.845 177.804 215.909 182.655 214.773C188.322 213.447 194.07 212.474 199.753 211.303C204.048 210.419 206.617 210.75 210.677 210.393L211.676 210.301L212.604 211.396C214.61 225.474 219.183 238.736 222.157 252.58C222.453 253.959 222.612 257.109 221.612 258.336C213.812 266.29 203.808 270.106 195.939 278.846C186.018 289.865 189.423 299.44 183.405 311.676C179.466 319.685 170.094 324.45 166.135 331.977C168.981 349.34 168.455 351.401 179.835 364.813C194.325 381.892 199.933 379.375 219.884 379.71C249.807 380.213 247.293 426.171 247.464 446.563C246.882 474.052 249.138 498.846 260.347 524.439C268.531 543.687 286.119 566.793 301.557 581.022C327.94 605.341 351.115 619.652 357.989 658.108C361.587 678.241 360.882 699.531 360.406 720.238C360.127 739.808 358.56 759.338 355.715 778.701C355.164 782.38 353.996 790.325 352.708 793.572L352.11 793.424C351.253 796.043 350.988 797.669 348.814 799.421C348.512 793.26 344.465 795.983 342.857 792.196C327.171 800.967 319.54 803.076 316.33 822.965C303.824 823.391 291.923 822.779 294.251 806.375L294.103 805.529L293.69 805.246C291.12 805.139 287.898 804.031 285.192 803.668C270.285 801.818 256.025 806.047 240.951 804.621C228.976 803.488 216.252 804.636 204.219 804.306L157.996 802.761C155.179 802.657 152.323 802.116 149.475 802.157C125.703 802.503 101.452 803.475 77.7162 803.579C52.8837 803.688 27.9774 797.925 3.19945 802.782C3.02496 802.838 2.85047 802.894 2.67598 802.949L1.83121 802.473C1.03965 799.337 1.46163 787.063 1.46593 782.945C1.48157 767.958 1.66808 752.854 1.56527 737.858C1.54629 735.089 1.6403 734.774 0 733.211L0 226.815Z"/><path fill="#FEFEFE" d="M293.223 586.939C307.26 602.104 327.95 614.534 338.558 633.655C344.121 643.68 348.938 662.025 349.698 673.086C351.64 701.344 349.99 766.426 342.857 792.196C327.171 800.967 319.54 803.076 316.33 822.965C303.824 823.391 291.923 822.779 294.251 806.375C298.932 791.289 308.01 790.82 321.321 789.338C321.64 788.698 321.939 788.048 322.219 787.389C325.459 779.667 327.757 758.483 327.541 749.911C327.232 737.587 325.792 723.168 324.673 710.734C322.239 685.694 320.899 660.421 313.459 636.223C310.454 626.447 307.039 617.126 302.752 607.806C299.569 600.887 296.133 593.957 293.223 586.939Z"/><defs><linearGradient id="gradient_2" gradientUnits="userSpaceOnUse" x1="511.37137" y1="1023.4134" x2="512.02185" y2="864.91919"><stop offset="0" stop-color="#525252"/><stop offset="1" stop-color="#696868"/></linearGradient></defs><path fill="url(#gradient_2)" d="M1021.57 869.221C1022.98 862.568 1022.8 854.327 1024 847.305L1024 1024L848.331 1024L175.122 1024L0 1024L0 849.817C1.07709 855.002 1.70223 867.64 2.74162 870.841L3.21092 869.862C4.20751 870.734 4.69217 872.768 5.1916 874.179C6.68721 875.305 8.91579 871.839 9.72418 871.788C31.2581 870.425 53.4179 875.368 74.9991 875.797C86.2168 876.02 97.6598 875.179 108.987 875.471C116.117 875.656 123.78 875.853 130.944 876.078C158.501 872.479 184.18 878.949 211.301 880.64C232.859 881.984 256.414 880.257 278.03 879.166C291.86 878.469 305.421 880.369 318.968 880.31L455.302 880.118C466.357 880.136 478.563 878.913 489.236 878.821L631.985 877.337C653.776 877.233 675.911 880.407 697.639 879.784C721.086 879.112 744.52 876.735 768.095 877.276C776.488 877.469 784.87 877.651 793.278 877.748C801.98 877.849 810.999 876.823 819.769 877.362C837.114 879.028 853.216 878.705 870.57 878.239C885.817 877.795 902.944 879.5 918.114 878.006C939.864 875.862 961.17 875.906 982.773 873.441C992.224 872.363 1001.95 872.627 1011.3 870.105C1014.27 869.303 1016.29 867.93 1019.57 867.463C1020.34 868.094 1020.84 868.55 1021.57 869.221Z"/><path fill="#FEFEFE" d="M0 849.817C1.07709 855.002 1.70223 867.64 2.74162 870.841C9.81874 918.275 35.6347 960.885 74.4022 989.119C101.715 1009.38 133.352 1020.12 166.999 1023C169.362 1023.2 172.9 1023.47 175.122 1024L0 1024L0 849.817Z"/><path fill="#FEFEFE" d="M1021.57 869.221C1022.98 862.568 1022.8 854.327 1024 847.305L1024 1024L848.331 1024C854.274 1022.73 866.117 1022.32 873.879 1021C904.18 1016.07 932.666 1003.31 956.511 983.978C984.684 961.092 1004.8 932.209 1015.35 897.48C1017.93 889.008 1020.66 878.009 1021.57 869.221Z"/><defs><linearGradient id="gradient_3" gradientUnits="userSpaceOnUse" x1="511.89587" y1="879.74225" x2="511.04581" y2="575.2793"><stop offset="0" stop-color="#676767"/><stop offset="1" stop-color="#989897"/></linearGradient></defs><path fill="url(#gradient_3)" d="M352.708 793.572L352.59 794.149C350.898 802.017 345.708 801.346 339.557 804.97C333.763 808.384 328.694 812.355 326.93 819.322C320.922 843.053 356.501 840.23 370.145 837.187C391.38 832.449 393.214 804.941 397.05 787.693C398.316 782.279 402.455 774.548 402.813 769.311C404.181 749.296 410.377 731.829 415.473 712.554C421.614 689.326 425.79 665.175 433.438 642.299C436.419 633.256 437.452 626.46 435.2 617.118C432.361 605.34 430.369 593.524 430.755 581.385C430.819 579.355 431.032 575.67 431.915 573.886L432.356 573.952C436.065 580.641 437.225 589.943 439.662 597.238C443.135 607.638 446.169 616.528 447.111 627.599C492.688 612.543 527.597 626.399 573.729 626.523C597.643 626.588 623.944 612.217 646.582 622.928C658.927 629.014 668.381 643.354 677.144 653.838C681.62 659.109 686.426 664.089 691.533 668.751C704.495 680.682 719.79 690.455 734.847 699.522C747.785 707.312 763.98 714.421 774.989 724.674C791.107 739.685 793.846 777.8 788.967 798.122C780.639 800.207 774.89 802.356 770.136 810.153C762.662 822.411 771.92 832.121 784.604 832.832C816.634 834.63 826.471 832.366 830.097 798.858C831.298 800.253 831.063 800.54 832.064 801.703C837.717 797.811 894.751 804.637 905.712 803.388C910.647 802.826 923.367 802.484 929.047 802.024C959.623 799.545 990.805 805.219 1021.12 799.916C1023.42 797.703 1022.39 783.99 1022.55 781.999C1023.34 772.214 1021.07 760.086 1023.28 750.888C1021.89 749.615 1022.22 746.605 1022.85 745.017L1024 744.828L1024 847.305C1022.8 854.327 1022.98 862.568 1021.57 869.221C1020.84 868.55 1020.34 868.094 1019.57 867.463C1016.29 867.93 1014.27 869.303 1011.3 870.105C1001.95 872.627 992.224 872.363 982.773 873.441C961.17 875.906 939.864 875.862 918.114 878.006C902.944 879.5 885.817 877.795 870.57 878.239C853.216 878.705 837.114 879.028 819.769 877.362C810.999 876.823 801.98 877.849 793.278 877.748C784.87 877.651 776.488 877.469 768.095 877.276C744.52 876.735 721.086 879.112 697.639 879.784C675.911 880.407 653.776 877.233 631.985 877.337L489.236 878.821C478.563 878.913 466.357 880.136 455.302 880.118L318.968 880.31C305.421 880.369 291.86 878.469 278.03 879.166C256.414 880.257 232.859 881.984 211.301 880.64C184.18 878.949 158.501 872.479 130.944 876.078C123.78 875.853 116.117 875.656 108.987 875.471C97.6598 875.179 86.2168 876.02 74.9991 875.797C53.4179 875.368 31.2581 870.425 9.72418 871.788C8.91579 871.839 6.68721 875.305 5.1916 874.179C4.69217 872.768 4.20751 870.734 3.21092 869.862L2.74162 870.841C1.70223 867.64 1.07709 855.002 0 849.817L0 733.211C1.6403 734.774 1.54629 735.089 1.56527 737.858C1.66808 752.854 1.48157 767.958 1.46593 782.945C1.46163 787.063 1.03965 799.337 1.83121 802.473L2.67598 802.949C2.85047 802.894 3.02496 802.838 3.19945 802.782C27.9774 797.925 52.8837 803.688 77.7162 803.579C101.452 803.475 125.703 802.503 149.475 802.157C152.323 802.116 155.179 802.657 157.996 802.761L204.219 804.306C216.252 804.636 228.976 803.488 240.951 804.621C256.025 806.047 270.285 801.818 285.192 803.668C287.898 804.031 291.12 805.139 293.69 805.246L294.103 805.529L294.251 806.375C291.923 822.779 303.824 823.391 316.33 822.965C319.54 803.076 327.171 800.967 342.857 792.196C344.465 795.983 348.512 793.26 348.814 799.421C350.988 797.669 351.253 796.043 352.11 793.424L352.708 793.572Z"/><path fill="#FEFEFE" d="M623.968 629.203C655.132 625.682 668.074 667.606 692.082 682.253C701.583 688.05 704.609 692.314 709.01 702.427C713.671 713.137 717.487 722.448 712.181 734.291C698.994 760.849 679.267 787.761 659.569 809.907C647.895 823.031 636.231 821.557 620.375 821.501C608.051 821.657 589.156 820.285 596.21 802.812C603.387 785.031 616.972 790.575 630.357 787.901C635.435 786.887 643.445 773.107 646.445 768.033C653.743 755.688 662.682 741.654 656.702 726.664C648.91 708.712 630.505 693.132 618.398 677.425C608.434 664.385 600.352 650.009 594.389 634.72C603.253 632.645 615.01 630.118 623.968 629.203Z"/><defs><linearGradient id="gradient_4" gradientUnits="userSpaceOnUse" x1="906.36096" y1="803.49805" x2="905.03461" y2="212.31146"><stop offset="0" stop-color="#757474"/><stop offset="1" stop-color="#CFCECE"/></linearGradient></defs><path fill="url(#gradient_4)" d="M820.472 212.471C820.623 214.44 820.804 215.748 820.58 217.698C821.58 216.084 819.928 213.625 821.987 213.414C831.707 212.42 841.965 214.465 851.237 216.707C855.589 217.76 864.364 217.579 869.035 218.05C875.453 218.697 882.8 221.315 888.298 221.413C904.289 221.699 920.836 219.779 936.7 220.007C949.387 220.189 964.096 222.791 976.801 222.65C993.813 222.462 1004.54 219.504 1021.62 223.344L1021.85 224.889L1022.4 224.632C1022.76 223.39 1022.72 223.324 1022.74 222.017C1023.28 221.429 1023.35 221.278 1024 220.83L1024 744.828L1022.85 745.017C1022.22 746.605 1021.89 749.615 1023.28 750.888C1021.07 760.086 1023.34 772.214 1022.55 781.999C1022.39 783.99 1023.42 797.703 1021.12 799.916C990.805 805.219 959.623 799.545 929.047 802.024C923.367 802.484 910.647 802.826 905.712 803.388C894.751 804.637 837.717 797.811 832.064 801.703C831.063 800.54 831.298 800.253 830.097 798.858C831.43 772.051 830.878 747.272 828.319 720.517C827.64 713.413 826.738 697.298 823.593 691.231C820.441 685.152 812.199 677.938 807.461 670.589C796.107 652.977 791.569 639.969 788.998 619.557C784.868 586.778 797.262 555.903 795.47 523.049C795.138 516.964 794.295 512.021 793.432 506.239C792.288 498.573 787.488 483.449 790.25 476.231C793.189 468.551 802.958 459.539 808.505 452.738C831.661 424.865 844.761 390.01 845.696 353.786C846.705 320.345 835.867 289.129 826.071 257.71C822.391 245.908 818.161 224.288 820.472 212.471Z"/><path fill="#FEFEFE" d="M0 0L168.952 0C166.837 1.36346 152.269 2.56175 148.256 3.26595C117.778 8.61396 83.4739 24.1061 60.7991 45.3886C32.4243 71.8343 14.1298 100.769 5.16174 138.922C3.78884 144.842 2.73438 150.832 2.00292 156.865C1.53364 160.502 1.01461 167.061 0 170.235L0 0Z"/><path fill="#FEFEFE" d="M856.397 0L1024 0L1024 169.26C1023.22 166.209 1022.82 161.302 1022.35 157.926C1021.51 151.799 1020.41 145.711 1019.04 139.68C1010.18 101.639 991.887 71.7234 963.183 45.5515C962.031 44.1148 954.19 37.9477 952.3 36.5366C930.919 20.4946 906.238 9.40882 880.045 4.08216C876.175 3.29168 858.522 1.25169 856.397 0Z"/></svg>