<?xml version="1.0" encoding="UTF-8"?>
<svg xmlns="http://www.w3.org/2000/svg" xmlns:xlink="http://www.w3.org/1999/xlink" width="2798" height="2947" viewBox="0 0 2798 2947">
<path fill-rule="nonzero" fill="#a8a29e" fill-opacity="1" d="M 2127.128906 1.851562 C 2110.820312 5.550781 2075.628906 16.648438 2041.320312 28.851562 C 1956.320312 59.25 1880.21875 92.050781 1792.820312 135.949219 C 1668.820312 198.25 1563.929688 263.648438 1477.628906 332.648438 C 1456.820312 349.25 1446.929688 356.351562 1441.128906 358.949219 C 1437.019531 360.851562 1436.820312 360.851562 1427.628906 358.851562 C 1422.519531 357.75 1406.429688 353.648438 1391.820312 349.851562 C 1325.71875 332.25 1293.71875 326.851562 1232.320312 322.648438 C 1205.820312 320.851562 1063.429688 320.851562 1037.320312 322.648438 C 958.023438 328.148438 908.324219 337.851562 831.824219 363.050781 L 819.425781 367.148438 L 814.824219 361.75 C 802.925781 347.648438 782.023438 325.25 777.625 321.851562 C 772.523438 317.75 769.222656 316.550781 752.023438 312.449219 C 737.625 308.949219 729.324219 304.449219 679.324219 273.351562 C 573.222656 207.148438 490.425781 161.351562 399.824219 118.648438 C 316.824219 79.449219 228.824219 44.148438 143.625 15.75 C 109.722656 4.550781 100.625 2.550781 83.324219 3.050781 C 71.625 3.351562 69.925781 3.648438 65.925781 5.851562 C 59.523438 9.449219 56.425781 15.75 52.824219 31.949219 C 49.222656 48.449219 32.722656 136.148438 25.324219 178.25 C 6.324219 286.148438 -1.074219 378.449219 0.125 489.75 C 0.625 532.550781 5.425781 672.648438 7.324219 699.351562 C 10.625 745.75 14.523438 766.449219 29.824219 821.351562 C 47.222656 883.75 51.023438 893.449219 80.425781 950.851562 C 87.023438 963.75 95.222656 981.351562 98.625 989.949219 L 104.722656 1005.550781 L 97.222656 1034.449219 C 65.925781 1155.25 58.023438 1192.351562 49.222656 1260.351562 C 43.523438 1304.351562 46.722656 1340.351562 58.824219 1368.25 C 65.222656 1382.949219 69.125 1394.550781 78.222656 1424.949219 C 86.425781 1452.550781 91.425781 1467.351562 98.523438 1484.351562 C 105.523438 1501.351562 148.925781 1589.449219 155.324219 1599.851562 C 167.925781 1620.050781 181.523438 1635.050781 197.324219 1645.851562 C 202.824219 1649.648438 213.824219 1658.648438 221.824219 1665.851562 C 243.722656 1685.648438 265.425781 1704.75 273.824219 1711.449219 C 307.523438 1738.648438 342.425781 1760.148438 393.324219 1785.351562 C 476.125 1826.25 560.023438 1854.75 666.625 1878.351562 C 680.425781 1881.351562 693.023438 1884.449219 694.425781 1885.050781 C 696.824219 1886.148438 697.023438 1886.648438 696.523438 1890.351562 C 696.125 1892.550781 692.023438 1904.25 687.222656 1916.351562 C 663.324219 1976.949219 649.925781 2031.148438 643.324219 2093.847656 C 641.023438 2115.347656 640.324219 2167.449219 641.722656 2205.847656 C 643.125 2242.847656 644.023438 2255.148438 646.925781 2279.046875 L 649.125 2296.746094 L 645.722656 2300.648438 C 643.824219 2302.847656 630.324219 2318.246094 615.722656 2334.949219 C 574.625 2382.046875 561.625 2398.046875 548.824219 2417.347656 C 532.324219 2442.347656 523.222656 2468.449219 518.222656 2504.847656 C 515.722656 2522.449219 515.722656 2567.449219 518.222656 2588.347656 C 525.425781 2650.246094 543.625 2705.746094 569.925781 2745.847656 C 574.425781 2752.746094 579.425781 2760.046875 581.023438 2762.046875 L 583.925781 2765.746094 L 577.222656 2775.046875 C 565.222656 2791.648438 562.722656 2799.648438 562.722656 2820.347656 C 562.824219 2862.746094 581.523438 2892.347656 617.222656 2906.648438 C 633.023438 2913.046875 647.925781 2914.949219 700.324219 2917.347656 C 719.023438 2918.148438 739.824219 2919.148438 746.625 2919.449219 L 759.023438 2920.046875 L 765.125 2925.648438 C 781.125 2939.949219 789.222656 2942.046875 836.324219 2943.847656 C 873.222656 2945.347656 1045.71875 2944.648438 1054.320312 2942.949219 C 1065.320312 2940.847656 1070.429688 2937.449219 1079.820312 2926.148438 L 1088.320312 2915.847656 L 1150.019531 2915.847656 L 1157.628906 2922.949219 C 1170.429688 2934.949219 1182.128906 2941.847656 1193.71875 2944.449219 C 1208.929688 2947.949219 1367.628906 2947.148438 1426.320312 2943.246094 C 1451.320312 2941.648438 1462.820312 2940.449219 1468.820312 2938.847656 C 1473.519531 2937.546875 1480.820312 2932.746094 1489.128906 2925.449219 L 1495.320312 2920.046875 L 1511.320312 2919.449219 C 1520.128906 2919.046875 1549.429688 2918.148438 1576.320312 2917.347656 C 1687.019531 2913.949219 1712.21875 2912.148438 1731.019531 2905.847656 C 1770.519531 2892.546875 1789.71875 2865.648438 1789.820312 2822.847656 C 1789.820312 2819.246094 1790.21875 2815.648438 1790.820312 2814.847656 C 1791.519531 2813.648438 1795.71875 2815.347656 1814.519531 2824.546875 C 1856.628906 2845.148438 1879.21875 2854.648438 1916.21875 2867.046875 C 2010.519531 2898.648438 2114.019531 2914.449219 2214.320312 2912.546875 C 2275.519531 2911.347656 2321.519531 2905.746094 2375.519531 2892.746094 C 2520.71875 2858.046875 2632.21875 2787.648438 2713.429688 2679.347656 C 2750.71875 2629.648438 2774.128906 2581.449219 2788.21875 2525.347656 C 2795.628906 2495.746094 2797.320312 2479.449219 2797.21875 2436.847656 C 2797.21875 2394.148438 2795.21875 2375.246094 2787.320312 2343.148438 C 2776.429688 2298.449219 2759.628906 2261.746094 2735.519531 2229.546875 C 2724.628906 2214.847656 2699.628906 2189.546875 2685.320312 2178.746094 C 2648.519531 2150.746094 2604.019531 2132.449219 2553.128906 2124.246094 C 2539.429688 2122.046875 2507.019531 2121.246094 2492.21875 2122.746094 C 2428.128906 2129.347656 2380.429688 2157.746094 2352.019531 2206.347656 C 2334.019531 2237.246094 2327.519531 2281.746094 2335.929688 2317.847656 C 2339.929688 2335.347656 2346.71875 2351.246094 2355.019531 2362.746094 C 2370.71875 2384.449219 2400.71875 2405.546875 2428.320312 2414.246094 C 2439.820312 2417.847656 2446.628906 2418.847656 2459.929688 2418.847656 C 2479.320312 2418.847656 2497.628906 2414.648438 2513.320312 2406.546875 C 2530.019531 2397.847656 2542.429688 2381.148438 2544.929688 2363.847656 C 2547.429688 2346.347656 2548.019531 2345.746094 2556.429688 2354.449219 C 2570.929688 2369.546875 2581.519531 2391.449219 2587.019531 2417.746094 C 2589.019531 2426.949219 2589.320312 2431.246094 2589.320312 2450.847656 C 2589.21875 2469.847656 2588.929688 2475.246094 2587.019531 2485.347656 C 2580.929688 2517.746094 2569.628906 2548.046875 2554.019531 2573.746094 C 2539.21875 2598.148438 2512.519531 2631.746094 2500.929688 2640.746094 C 2490.320312 2648.949219 2412.320312 2697.246094 2384.820312 2712.648438 C 2362.71875 2724.949219 2344.128906 2731.449219 2303.820312 2740.847656 C 2253.628906 2752.449219 2223.519531 2755.148438 2146.320312 2755.246094 C 2093.820312 2755.347656 2079.019531 2754.449219 2054.820312 2749.746094 C 1983.019531 2735.746094 1916.320312 2709.046875 1853.429688 2668.847656 C 1828.429688 2652.949219 1826.128906 2650.746094 1827.21875 2643.046875 C 1833.628906 2597.648438 1834.320312 2554.746094 1829.21875 2521.347656 C 1821.628906 2472.347656 1801.019531 2424.449219 1773.71875 2392.546875 C 1748.929688 2363.449219 1688.320312 2300.847656 1643.820312 2258.246094 L 1629.21875 2244.347656 L 1631.019531 2220.347656 C 1633.320312 2188.746094 1633.519531 2138.148438 1631.320312 2112.449219 C 1625.71875 2044.347656 1611.320312 1985.847656 1581.820312 1910.851562 C 1573.71875 1890.351562 1570.820312 1882.148438 1570.820312 1880.25 C 1570.820312 1879.449219 1578.429688 1877.148438 1592.628906 1873.851562 C 1634.71875 1863.851562 1669.519531 1854.949219 1690.320312 1849.050781 C 1819.628906 1811.949219 1920.128906 1762.75 2029.019531 1683.148438 C 2058.929688 1661.351562 2074.320312 1648.351562 2095.320312 1627.351562 C 2114.128906 1608.550781 2152.71875 1565.148438 2167.320312 1546.351562 C 2179.429688 1530.75 2184.820312 1519.351562 2199.429688 1477.851562 C 2225.320312 1404.050781 2230.019531 1383.449219 2237.820312 1309.148438 C 2244.019531 1249.851562 2245.019531 1222.75 2242.820312 1176.351562 C 2241.519531 1149.648438 2240.71875 1143.148438 2235.71875 1120.148438 C 2233.519531 1109.851562 2230.320312 1092.148438 2228.71875 1080.851562 C 2222.71875 1038.949219 2221.71875 1034.449219 2214.429688 1014.949219 C 2209.628906 1001.949219 2202.519531 987.851562 2187.21875 960.75 C 2182.019531 951.648438 2177.820312 943.25 2177.820312 942.25 C 2177.820312 941.148438 2180.128906 933.550781 2182.820312 925.351562 C 2208.71875 848.449219 2220.019531 793.75 2233.21875 680.851562 C 2240.019531 623.449219 2240.820312 606.351562 2240.820312 521.851562 C 2240.820312 449.449219 2239.519531 375.949219 2237.820312 350.851562 C 2236.429688 330.75 2235.128906 320.75 2226.820312 264.851562 C 2218.429688 208.449219 2217.128906 201.050781 2210.820312 174.351562 C 2208.128906 162.75 2201.21875 131.449219 2195.429688 104.75 C 2176.519531 17.25 2174.019531 9.550781 2162.519531 4.25 C 2152.019531 -0.449219 2140.929688 -1.25 2127.128906 1.851562 Z M 2127.128906 1.851562 "/>
</svg>
